<svg width="198" height="201" viewBox="0 0 198 201" fill="none" xmlns="http://www.w3.org/2000/svg">
<ellipse cx="99" cy="100.5" rx="99" ry="100.5" fill="#96D6BF"/>
<path d="M69.8151 125.952L69.8163 126.057L69.8186 132.456H134.837L134.84 125.962C135.003 118.57 138.723 112.431 143.924 110.069C141.185 97.8682 132.269 88.9216 121.683 88.9216H82.9728C72.3863 88.9216 63.4701 97.8679 60.7311 110.069C65.9327 112.431 69.652 118.568 69.8151 125.952Z" fill="#FFB986"/>
<path d="M148.334 102.929C142.598 102.929 137.933 107.008 137.776 112.093L137.771 119.441H66.8834L66.8797 112.093C66.7218 107.008 62.0574 102.929 56.3216 102.929C50.4865 102.929 45.7563 107.151 45.7563 112.358C45.7563 117.565 50.4865 121.786 56.3216 121.786C56.5084 121.786 56.679 121.781 56.8632 121.772C56.8632 121.772 56.8693 127.011 56.8693 127.106C56.8693 131.34 60.7156 134.772 65.4597 134.772H67.3517V136.984C67.3517 137.455 67.7795 137.836 68.3066 137.836H74.6609C75.188 137.836 75.6158 137.455 75.6158 136.984V134.772H129.039V136.984C129.039 137.455 129.467 137.836 129.994 137.836H136.348C136.875 137.836 137.303 137.455 137.303 136.984V134.772H139.19C143.935 134.772 147.78 131.34 147.78 127.106C147.78 127.068 147.778 127.03 147.777 126.992V121.773C147.961 121.781 148.147 121.786 148.333 121.786C154.168 121.786 158.899 117.565 158.899 112.358C158.899 107.151 154.169 102.929 148.334 102.929Z" fill="#E78C4B"/>
<g filter="url(#filter0_d)">
<path d="M30.9566 104.58C29.6226 106.091 28.3704 107.079 27.1999 107.544C26.0294 108.009 25.0323 107.944 24.2086 107.35C23.3779 106.725 22.7804 105.601 22.4162 103.977C22.108 102.603 22.0183 101.138 22.1473 99.5822C22.2975 98.0023 22.6272 96.5126 23.1365 95.1131C23.667 93.6897 24.3346 92.5221 25.1392 91.6104C25.8804 90.7706 26.5681 90.3439 27.2023 90.3301C27.8296 90.2851 28.3153 90.6746 28.6595 91.4986C27.5584 92.7462 26.7777 94.179 26.3175 95.797C25.8502 97.3838 25.7811 98.911 26.1103 100.379C26.4115 101.721 26.9285 102.486 27.6611 102.675C28.3938 102.863 29.2154 102.441 30.1259 101.409C31.2481 100.137 32.0467 98.5474 32.5214 96.6388C33.0104 94.675 33.0657 92.85 32.6875 91.1639C32.3583 89.6964 31.7713 88.6189 30.9266 87.9312C30.0818 87.2436 28.8988 86.5869 27.3774 85.9611C25.7997 85.3208 24.5603 84.6496 23.6592 83.9475C22.7723 83.1902 22.1432 81.9842 21.772 80.3293C21.4078 78.7057 21.3891 76.9058 21.716 74.9299C22.0358 72.9227 22.6517 70.9326 23.5635 68.9596C24.4753 66.9866 25.6088 65.2324 26.9639 63.6969C28.6791 61.7535 30.1779 60.7993 31.4605 60.8341C32.7642 60.845 33.6402 61.8496 34.0885 63.848C34.3827 65.1594 34.3986 66.4729 34.136 67.7886C33.8734 69.1042 33.3822 70.1699 32.6623 70.9857C31.8576 71.8974 31.1032 72.1452 30.3991 71.7291C30.7033 70.8361 30.8914 69.8985 30.9632 68.9165C31.035 67.9344 30.9833 67.0531 30.8082 66.2725C30.5841 65.2733 30.2043 64.705 29.6689 64.5676C29.1335 64.4302 28.5164 64.7574 27.8177 65.5491C26.9707 66.5088 26.3735 67.7533 26.0261 69.2826C25.6928 70.7567 25.6803 72.1807 25.9885 73.5545C26.2687 74.8035 26.7749 75.6985 27.507 76.2395C28.2322 76.7493 29.3027 77.2594 30.7185 77.7699C31.8667 78.1528 32.8034 78.5404 33.5288 78.9325C34.2753 79.3006 34.9721 79.9208 35.6193 80.7931C36.2806 81.6102 36.7759 82.7526 37.1051 84.2201C37.5534 86.2184 37.5785 88.4613 37.1804 90.9486C36.8036 93.412 36.0638 95.8558 34.9611 98.2801C33.8796 100.68 32.5447 102.78 30.9566 104.58Z" fill="#423D31"/>
<path d="M50.8374 81.9373C48.9205 83.3275 47.3186 83.8247 46.0319 83.4289C44.7452 83.0331 43.9154 81.5365 43.5424 78.9392C43.2286 76.7536 43.2349 74.1085 43.5614 71.0039C43.8833 67.8676 44.6979 64.7762 46.0052 61.7297C47.308 58.6515 49.1898 56.22 51.6508 54.4352C54.7075 52.2184 56.6595 53.1635 57.5066 57.2705C58.0538 56.6989 58.5043 55.9524 58.8583 55.0312C59.2077 54.0783 59.5198 53.065 59.7947 51.9914L61.0381 51.0896C60.5843 53.3073 60.1559 55.1044 59.7529 56.4808C59.3453 57.8256 58.7444 59.1183 57.95 60.3589C58.2221 63.4491 58.0922 66.4286 57.5603 69.2975C57.0542 72.1476 56.2164 74.6788 55.0467 76.8911C53.8725 79.0716 52.4694 80.7537 50.8374 81.9373ZM51.7777 76.5339C52.7362 75.8388 53.4934 74.2404 54.0495 71.7387C54.6056 69.237 54.8389 66.4798 54.7495 63.4669C54.0869 63.6327 53.6737 63.1455 53.51 62.0052C53.3326 60.7698 53.577 59.6833 54.2432 58.7454C54.0459 57.7694 53.8033 57.1759 53.5156 56.9649C53.2492 56.7034 52.87 56.7511 52.3778 57.1081C51.5229 57.728 50.8161 59.08 50.2572 61.1641C49.6939 63.2164 49.3207 65.498 49.1378 68.0089C48.9763 70.4693 49.0115 72.5072 49.2434 74.1226C49.4617 75.643 49.752 76.5691 50.1143 76.9009C50.472 77.2011 51.0265 77.0788 51.7777 76.5339Z" fill="#423D31"/>
<path d="M63.1415 84.3513C61.7666 84.9609 60.5238 84.9986 59.4132 84.4644C58.2761 83.975 57.6418 82.9812 57.5103 81.4829C57.3899 80.1122 57.6124 78.8379 58.1776 77.66C58.7429 76.4821 59.5136 75.3952 60.4899 74.3993C61.469 73.4353 62.7818 72.2903 64.4281 70.9642L67.3409 41.3071C67.6573 37.9874 68.4951 35.4136 69.8543 33.5857C71.2427 31.7447 72.8291 30.4286 74.6136 29.6375C75.9885 29.0279 77.2313 28.9902 78.3419 29.5244C79.479 30.0138 80.1133 31.0076 80.2448 32.5059C80.3091 33.239 80.3226 33.912 80.2852 34.5247L78.2229 35.4391C78.2198 34.7118 78.2113 34.2685 78.1973 34.1091C78.1525 33.5991 77.9566 33.272 77.6097 33.1278C77.2627 32.9835 76.8552 33.0152 76.3871 33.2227C75.7728 33.4951 75.1997 34.0638 74.6678 34.9289C74.1331 35.7621 73.797 36.9543 73.6597 38.5055L73.2453 42.6137L76.4486 41.1935L76.3093 43.2423L73.0622 44.682L70.2825 72.7401C69.9689 76.0916 69.1457 78.6589 67.813 80.4421C66.4831 82.2571 64.9259 83.5602 63.1415 84.3513ZM61.7587 80.5432C62.9288 80.0244 63.6534 78.4115 63.9324 75.7046L64.2594 72.6783C62.7594 73.9395 61.632 75.1183 60.8772 76.2147C60.096 77.3559 59.7586 78.5321 59.8649 79.7435C59.8985 80.126 60.1048 80.3988 60.4838 80.562C60.8657 80.757 61.2906 80.7507 61.7587 80.5432Z" fill="#423D31"/>
<path d="M85.4696 63.329C83.6744 63.6521 82.1563 63.2977 80.915 62.2659C79.6738 61.234 79.0059 59.391 78.9113 56.7367C78.827 54.3702 79.1954 51.8095 80.0164 49.0548C80.8678 46.2624 82.1749 43.8064 83.9377 41.6868C85.7309 39.5296 87.903 38.2214 90.454 37.7623C91.7453 37.5299 92.7138 37.5809 93.3597 37.9152C94.0055 38.2496 94.3415 38.7845 94.3677 39.52L94.3797 39.8558L94.8088 37.2199L101.611 35.9956L98.7913 52.9174C98.6824 53.4198 98.6376 53.9428 98.657 54.4864C98.6798 55.126 98.838 55.5642 99.1317 55.801C99.4558 56.0002 99.9643 56.0374 100.657 55.9127C101.098 55.8334 101.442 55.7071 101.69 55.5338C101.061 57.4494 100.444 58.8316 99.8405 59.6805C99.2357 60.4974 98.3349 61.0136 97.1381 61.2289C95.8469 61.4613 94.7781 61.2675 93.932 60.6473C93.1161 59.9895 92.5886 58.9741 92.3495 57.601C90.5344 60.9209 88.2411 62.8302 85.4696 63.329ZM88.3745 58.1233C89.1618 57.9816 89.9203 57.4749 90.65 56.6034C91.41 55.6942 91.9083 54.5585 92.1451 53.1963L94.0263 41.9471C94.0115 41.5313 93.8398 41.1599 93.5112 40.8328C93.1814 40.4738 92.6859 40.3538 92.0245 40.4728C90.7647 40.6995 89.6577 41.6551 88.7035 43.3395C87.7481 44.992 87.0245 46.9245 86.5329 49.1372C86.04 51.3179 85.8221 53.2078 85.8791 54.8068C85.9361 56.4058 86.193 57.3894 86.6499 57.7578C87.1382 58.1205 87.7131 58.2423 88.3745 58.1233Z" fill="#423D31"/>
<path d="M117.599 63.3561C115.917 63.1387 114.709 62.469 113.973 61.3469C113.238 60.2248 112.89 58.88 112.93 57.3125C112.947 56.6407 113.046 55.8992 113.226 55.088C113.407 54.2448 113.587 53.4336 113.766 52.6543C113.977 51.8792 114.117 51.3838 114.186 51.1681C114.468 50.0812 114.735 49.0084 114.985 47.9494C115.235 46.8905 115.368 46.0251 115.385 45.3533C115.427 43.7219 114.877 42.8323 113.734 42.6847C112.909 42.5781 112.168 42.8996 111.512 43.6493C110.857 44.367 110.322 45.3571 109.908 46.6194L106.277 61.6041L99.4219 60.7183L105.082 37.3782L111.937 38.264L111.349 40.6915C112.982 39.1051 114.861 38.4493 116.988 38.7241C118.606 38.9333 119.88 39.5472 120.809 40.566C121.738 41.5847 122.18 43.0058 122.133 44.8292C122.109 45.7569 121.972 46.7822 121.72 47.9051C121.469 48.996 121.117 50.3305 120.662 51.9087C120.383 52.8676 120.12 53.8125 119.873 54.7435C119.659 55.6466 119.545 56.37 119.531 56.9138C119.515 57.5536 119.645 58.0679 119.922 58.4567C120.198 58.8455 120.686 59.085 121.384 59.1752C122.146 59.2737 122.672 59.2454 122.962 59.0903C122.73 60.6972 122.111 61.8529 121.106 62.5575C120.133 63.2662 118.964 63.5324 117.599 63.3561Z" fill="#423D31"/>
<path d="M127.124 67.6077C125.457 66.8684 124.122 65.6307 123.119 63.8946C122.117 62.1585 121.732 59.9675 121.964 57.3217C122.171 54.9628 122.812 52.6803 123.887 50.4744C124.994 48.2496 126.474 46.6207 128.328 45.5878C130.213 44.5361 132.341 44.5355 134.71 45.5861C135.91 46.1179 136.782 46.7366 137.328 47.4423C137.874 48.148 138.115 48.8674 138.051 49.6006L138.021 49.9353L138.726 47.6151L145.045 50.4166L140.459 65.2733C140.3 65.6996 140.196 66.1837 140.149 66.7256C140.093 67.3632 140.184 67.8838 140.422 68.2874C140.692 68.6721 141.149 69.0071 141.793 69.2925C142.202 69.4741 142.529 69.553 142.775 69.5292C141.974 71.029 141.25 72.0158 140.6 72.4896C139.953 72.9315 139.074 72.906 137.963 72.4131C136.763 71.8814 135.817 71.0643 135.123 69.962C134.462 68.8408 134.105 67.54 134.053 66.0596C132.008 68.233 129.699 68.749 127.124 67.6077ZM130.384 64.2341C131.115 64.5583 131.864 64.5095 132.63 64.0876C133.429 63.6468 134.017 62.8313 134.395 61.6411L137.45 51.7685C137.486 51.3541 137.375 50.8908 137.116 50.3785C136.86 49.8344 136.425 49.4262 135.81 49.1538C134.64 48.635 133.521 48.9172 132.454 50.0004C131.389 51.0517 130.501 52.5126 129.79 54.383C129.081 56.2216 128.657 57.9378 128.517 59.5317C128.377 61.1255 128.492 62.2364 128.863 62.8643C129.262 63.5051 129.769 63.9617 130.384 64.2341Z" fill="#423D31"/>
<path d="M146.095 79.3159C144.773 78.3578 143.86 77.1529 143.353 75.7013C142.872 74.2685 142.748 72.7443 142.98 71.1289C143.098 70.3054 143.296 69.5223 143.575 68.7798L148.108 56.3296L146.826 55.3996L147.409 53.7245L148.692 54.6545L150.799 48.9431L156.686 52.1636C156.28 53.1982 156.048 53.8169 155.991 54.0199C155.682 54.7753 155.114 56.3395 154.287 58.7125L156.619 60.4033L156.035 62.0784L153.703 60.3875L149.17 72.8378C148.94 73.4407 148.796 73.9481 148.737 74.3598C148.573 75.5001 148.945 76.3991 149.851 77.0566C150.318 77.3948 150.661 77.5915 150.882 77.6468C150.1 79.1082 149.314 79.902 148.524 80.0283C147.733 80.1545 146.924 79.9171 146.095 79.3159Z" fill="#423D31"/>
<path d="M166.661 67.4225C165.895 66.6956 165.313 65.7172 164.915 64.4872C164.517 63.2572 164.415 62.1233 164.61 61.0855C164.805 60.0476 165.238 59.4204 165.907 59.2036C166.583 58.9555 167.304 59.1949 168.07 59.9218C168.836 60.6487 169.415 61.6429 169.807 62.9043C170.228 64.1563 170.341 65.3012 170.146 66.3391C169.951 67.3769 169.507 67.9932 168.814 68.1879C168.144 68.4046 167.427 68.1495 166.661 67.4225ZM159.329 91.5935C158.215 90.5361 157.399 89.2053 156.88 87.601C156.384 86.0187 156.313 84.284 156.668 82.3971C156.815 81.6108 157.1 80.6768 157.522 79.595L162.735 66.6988L167.749 71.4568L162.228 85.1172C162.047 85.5008 161.906 85.96 161.805 86.4946C161.687 87.1236 161.706 87.6787 161.862 88.16C162.046 88.6319 162.394 89.1102 162.905 89.5948C163.323 89.9913 163.712 90.2494 164.072 90.3691C163.684 91.8534 163.039 92.6677 162.136 92.812C161.263 92.9468 160.327 92.5406 159.329 91.5935Z" fill="#423D31"/>
<path d="M170.892 105.877C169.405 104.075 168.386 102.077 167.835 99.8831C167.291 97.6577 167.325 95.2691 167.937 92.7175C168.452 90.5704 169.294 88.5387 170.464 86.6223C171.653 84.7306 173.083 83.5916 174.753 83.2054C176.451 82.8127 178.247 83.7639 180.142 86.0592C181.384 87.5646 182.163 89.0304 182.478 90.4564C182.793 91.8824 182.798 93.2334 182.492 94.5092C182.223 95.6294 181.859 96.2721 181.399 96.4374C180.959 96.6273 180.515 96.4508 180.066 95.9078C179.679 95.4389 179.368 94.8203 179.131 94.052C179.615 93.3524 179.957 92.5825 180.159 91.7424C180.465 90.4666 180.343 89.4955 179.793 88.8291C179.182 88.0887 178.384 88.1263 177.4 88.9418C176.423 89.7261 175.473 90.945 174.551 92.5985C173.656 94.2456 173.022 95.8471 172.649 97.4029C172.029 99.9856 172.331 102.017 173.553 103.498C174.103 104.165 174.774 104.656 175.565 104.973C176.385 105.283 177.141 105.416 177.835 105.373C176.181 109.312 173.866 109.48 170.892 105.877Z" fill="#423D31"/>
</g>
<defs>
<filter id="filter0_d" x="17.484" y="29.1501" width="169.234" height="87.309" filterUnits="userSpaceOnUse" color-interpolation-filters="sRGB">
<feFlood flood-opacity="0" result="BackgroundImageFix"/>
<feColorMatrix in="SourceAlpha" type="matrix" values="0 0 0 0 0 0 0 0 0 0 0 0 0 0 0 0 0 0 127 0"/>
<feOffset dy="4"/>
<feGaussianBlur stdDeviation="2"/>
<feColorMatrix type="matrix" values="0 0 0 0 0 0 0 0 0 0 0 0 0 0 0 0 0 0 0.25 0"/>
<feBlend mode="normal" in2="BackgroundImageFix" result="effect1_dropShadow"/>
<feBlend mode="normal" in="SourceGraphic" in2="effect1_dropShadow" result="shape"/>
</filter>
</defs>
</svg>
